<svg width="1920" height="954" fill="none" xmlns="http://www.w3.org/2000/svg"><g clip-path="url(#prefix__clip0_58_127)"><path fill-rule="evenodd" clip-rule="evenodd" d="M1820.65 299.874c-2.91-10.67-1.18-22.173 5.16-31.236C1864.38 213.5 1887 146.392 1887 74c0-187.777-152.22-340-340-340s-340 152.223-340 340c0 46.922 9.5 91.624 26.69 132.285 7.71 18.227-.51 39.945-17.44 50.19C1160.96 289.938 1124 350.653 1124 420c0 10.258.81 20.327 2.37 30.146 3.08 19.43-15.7 40.854-35.37 40.854-93.888 0-170 76.112-170 170s76.112 170 170 170c41.09 0 78.78-14.579 108.17-38.847 21.89-18.078 66.76-16.212 85.59 5.041 27.99 31.604 65.37 54.706 107.77 64.945 15.25 3.684 27.18 16.239 29.92 31.69C1441.03 998.509 1532.48 1078 1642.5 1078c123.44 0 223.5-100.064 223.5-223.5 0-112.243-82.74-205.161-190.56-221.089-14.4-2.128-26.33-13.291-29.92-27.399-5.3-20.791 8.41-43.797 29.1-49.493C1763.05 532.168 1828 451.169 1828 355c0-19.081-2.56-37.564-7.35-55.126z" fill="rgba(154,183,184,1)"/></g><defs><clipPath id="prefix__clip0_58_127"><path fill="#fff" d="M0 0h1920v954H0z"/></clipPath></defs></svg>